<svg width="114" height="99" viewBox="0 0 114 99" fill="none" xmlns="http://www.w3.org/2000/svg">
<g id="Layer_1" clip-path="url(#clip0_5890_8773)">
<path id="Vector" d="M29.4676 37.2877L33.2682 35.4739C34.7977 31.208 37.3681 27.707 41.1268 24.7679C42.692 23.5434 44.4077 22.5082 46.2227 21.6898C49.4772 20.2241 52.9443 19.4806 56.5308 19.4806C59.1291 19.4806 61.8221 19.9035 64.7353 20.7722C64.74 20.2989 64.7353 19.6714 64.7012 18.9584C64.6578 18.0087 64.5306 17.2132 64.4421 16.7598C61.8578 16.0941 58.8763 15.6864 56.554 15.6864C53.2623 15.6864 50.0279 16.2361 46.9378 17.3186L45.7914 17.7217L45.9729 16.5369C46.6539 12.0908 48.5806 7.91498 51.5435 4.46286L51.711 4.26743L51.9654 4.2201C53.495 3.93764 55.0385 3.79412 56.5556 3.79412C57.1916 3.79412 57.8307 3.8216 58.4977 3.87504L59.0019 0.10993C58.9755 0.106877 58.9507 0.10535 58.9243 0.103823C58.0649 0.0351166 57.2909 0 56.5556 0C55.8203 0 55.0602 0.0351166 54.2039 0.102296C52.5828 0.232075 50.9974 0.490106 49.485 0.867227C36.7771 4.04146 27.8993 15.2834 27.8993 28.2047C27.8993 30.7835 28.2623 33.3577 28.9743 35.8541L29.4645 37.2893L29.4676 37.2877ZM31.7821 27.2474C32.0985 19.1844 36.4436 11.8068 43.4087 7.50885L45.4827 6.23091L44.4589 8.4173C42.858 11.8404 41.9847 15.5002 41.8621 19.2943L41.8497 19.6806L41.5177 19.8836C38.1934 21.9051 35.3639 24.5312 33.1084 27.6887L31.689 29.6751L31.7836 27.2474H31.7821Z" fill="#1C2948"/>
<path id="Vector_2" d="M77.1484 47.8411L78.1381 46.7831L74.7393 44.4165L74.6819 44.4287C70.2159 45.2608 65.8398 44.815 61.307 43.0668C59.4409 42.3461 57.6709 41.4072 56.0421 40.2727C53.1195 38.2406 50.7259 35.6603 48.9249 32.6082C47.656 30.4584 46.5949 27.6323 46.0086 24.8901C45.6378 25.0764 45.1383 25.3405 44.4976 25.7055C43.5979 26.2185 42.8983 26.7162 42.5058 27.0155C43.1 29.1209 44.2091 32.1761 45.5758 34.4938C47.2201 37.2802 49.5082 39.9674 52.0181 42.0591L52.9473 42.8332L51.8149 43.2744C47.5536 44.9341 42.9262 45.3982 38.4322 44.6135L38.1778 44.5692L38.0087 44.3753C36.8918 43.0973 35.8417 41.6728 35.1296 40.4651C34.8209 39.9429 34.4719 39.2788 34.1492 38.6085L30.6527 40.2086C30.6682 40.2407 30.6822 40.2727 30.6977 40.3033C31.0653 41.0652 31.4237 41.7415 31.7944 42.3736C32.1528 42.9813 32.5685 43.6195 33.0665 44.3234C33.9957 45.6395 35.0195 46.8624 36.1069 47.9541C45.2779 57.1776 59.6099 59.0861 70.9651 52.6002C73.2315 51.3039 75.3102 49.7038 77.1453 47.8427M68.176 49.7756C64.5491 51.6673 60.5671 52.6139 56.5819 52.6139C52.5967 52.6139 48.6255 51.6719 44.9956 49.7893L42.83 48.6671L45.2655 48.4396C49.0769 48.0854 52.7317 46.9907 56.1274 45.1891L56.4718 45.0058L56.8177 45.1875C60.2584 47.0014 63.9876 48.09 67.8983 48.4274L70.357 48.6381L68.176 49.7756Z" fill="#1C2948"/>
<path id="Vector_3" d="M67.1894 16.6834C67.4981 18.6286 67.5679 20.6073 67.3942 22.5662C67.0855 26.0748 66.0322 29.4109 64.2638 32.4829C62.9623 34.7425 61.0248 37.0984 58.9849 38.9199C59.3649 39.2069 59.8877 39.5627 60.4632 39.8467C61.3443 40.2803 62.1618 40.4956 62.6055 40.5902C63.7953 39.4024 66.1579 36.8892 67.6067 34.3761C69.2309 31.5561 70.34 28.5147 70.9062 25.3359L71.1172 24.1556L72.0743 24.8961C75.6686 27.6703 78.4081 31.379 79.9997 35.6204L80.0897 35.8602L80.0043 36.1029C79.4986 37.5519 78.8626 38.9428 78.1149 40.2421C77.8031 40.7841 77.4634 41.3185 77.0864 41.8651L80.1672 44.1538C80.1827 44.1339 80.1967 44.111 80.2107 44.0897C80.6977 43.3843 81.1104 42.7369 81.4718 42.1124C81.8302 41.4865 82.1807 40.8116 82.5391 40.0497C83.2232 38.6008 83.7785 37.1137 84.1912 35.6311C87.6536 23.1846 82.097 10.0403 70.6767 3.66738C68.3994 2.39554 65.9469 1.43518 63.3873 0.81377L62.0408 0.532837L61.5165 4.58346C61.5243 4.59262 61.532 4.60178 61.5398 4.61095C64.557 8.02489 66.4572 12.0862 67.1894 16.6834ZM69.6063 7.45997C76.5761 11.7076 80.9553 19.0683 81.3151 27.1512L81.4222 29.5544L79.995 27.6016C77.7581 24.5404 74.955 21.9876 71.6617 20.0119L71.3282 19.8119L71.3127 19.4256C71.1668 15.5841 70.2408 11.8663 68.5623 8.37606L67.5059 6.17898L69.6047 7.45844L69.6063 7.45997Z" fill="#1C2948"/>
<path id="Vector_4" d="M5.35963 71.5692C5.59852 71.5692 5.80018 71.4867 5.96306 71.3203C6.12595 71.1554 6.20816 70.9478 6.20816 70.7019C6.20816 70.4561 6.12595 70.2668 5.96306 70.1004C5.80018 69.9355 5.60007 69.85 5.35963 69.85C5.11918 69.85 4.91442 69.934 4.74068 70.1004C4.56539 70.2653 4.47852 70.4668 4.47852 70.7019C4.47852 70.9478 4.56228 71.1539 4.73137 71.3203C4.8989 71.4852 5.10988 71.5692 5.35963 71.5692Z" fill="#1C2948"/>
<path id="Vector_5" d="M2.94742 71.5692C3.18631 71.5692 3.38953 71.4837 3.55861 71.3111C3.72615 71.1401 3.81147 70.9371 3.81147 70.7019C3.81147 70.4668 3.7277 70.2668 3.55861 70.1004C3.38953 69.934 3.18787 69.85 2.94742 69.85C2.70698 69.85 2.50531 69.934 2.33623 70.1004C2.16869 70.2653 2.08337 70.4668 2.08337 70.7019C2.08337 70.9478 2.16559 71.1539 2.32847 71.3203C2.49135 71.4852 2.69767 71.5692 2.94742 71.5692Z" fill="#1C2948"/>
<path id="Vector_6" d="M20.399 82.3714C20.2237 82.5363 20.1368 82.7379 20.1368 82.9745C20.1368 83.2112 20.2206 83.4249 20.3897 83.5913C20.5588 83.7562 20.7682 83.8402 21.018 83.8402C21.2677 83.8402 21.457 83.7578 21.6198 83.5913C21.7827 83.4265 21.8649 83.2203 21.8649 82.9745C21.8649 82.7287 21.7827 82.5379 21.6198 82.3714C21.457 82.2065 21.2568 82.1226 21.018 82.1226C20.7791 82.1226 20.5712 82.205 20.3975 82.3714" fill="#1C2948"/>
<path id="Vector_7" d="M17.9961 82.3714C17.8286 82.5363 17.7433 82.7379 17.7433 82.9745C17.7433 83.2112 17.8255 83.4249 17.9884 83.5913C18.1513 83.7562 18.3576 83.8402 18.6073 83.8402C18.8571 83.8402 19.0494 83.7547 19.2185 83.5837C19.3861 83.4127 19.4729 83.2096 19.4729 82.9745C19.4729 82.7394 19.3876 82.5379 19.2185 82.3714C19.051 82.2065 18.8478 82.1226 18.6073 82.1226C18.3669 82.1226 18.1652 82.205 17.9961 82.3714Z" fill="#1C2948"/>
<path id="Vector_8" d="M4.44732 80.5834H21.9966V73.0456H20.4981V79.4124H7.55913V73.4288L7.13409 73.2853C6.85176 73.1891 6.43913 73.096 5.89619 73.0044C5.35325 72.9127 4.81497 72.8669 4.28289 72.8669C2.95657 72.8669 1.9405 73.2471 1.23468 74.0059C0.527305 74.7663 0.175171 75.7129 0.175171 76.8458C0.175171 79.3376 1.59922 80.5834 4.44577 80.5834M2.34227 74.7617C2.77662 74.2808 3.3692 74.0411 4.11845 74.0411C4.86771 74.0411 5.55802 74.1632 6.0901 74.409V79.4139H4.65674C3.62361 79.4139 2.8728 79.1925 2.39967 78.7497C1.92809 78.3054 1.69074 77.6184 1.69074 76.687C1.69074 75.8854 1.90792 75.2442 2.34227 74.7617Z" fill="#1C2948"/>
<path id="Vector_9" d="M27.9939 80.6628V73.0441H26.4954V80.7896C26.4954 81.7957 26.3123 82.5042 25.9494 82.9149C25.5848 83.3256 25.045 83.5332 24.3283 83.5332C23.7311 83.5332 23.1819 83.4432 22.6824 83.2599L22.5195 84.4783C23.0857 84.628 23.6488 84.7028 24.2151 84.7028C26.7343 84.7028 27.9955 83.3546 27.9955 80.6613" fill="#1C2948"/>
<path id="Vector_10" d="M60.0939 70.1019C59.9187 70.2668 59.8318 70.4683 59.8318 70.7035C59.8318 70.9508 59.9156 71.1554 60.0846 71.3218C60.2537 71.4867 60.4631 71.5707 60.7129 71.5707C60.9626 71.5707 61.1519 71.4882 61.3148 71.3218C61.4777 71.1569 61.5599 70.9508 61.5599 70.7035C61.5599 70.4683 61.4777 70.2683 61.3148 70.1019C61.1519 69.937 60.9518 69.853 60.7129 69.853C60.474 69.853 60.2661 69.9355 60.0924 70.1019" fill="#1C2948"/>
<path id="Vector_11" d="M57.6911 70.1019C57.5236 70.2668 57.4382 70.4683 57.4382 70.7035C57.4382 70.9508 57.5205 71.1554 57.6833 71.3218C57.8462 71.4867 58.0525 71.5707 58.3023 71.5707C58.552 71.5707 58.7444 71.4852 58.9135 71.3142C59.081 71.1432 59.1679 70.9401 59.1679 70.7035C59.1679 70.4668 59.0826 70.2683 58.9135 70.1019C58.7459 69.937 58.5427 69.853 58.3023 69.853C58.0618 69.853 57.8602 69.9355 57.6911 70.1019Z" fill="#1C2948"/>
<path id="Vector_12" d="M66.1562 80.5835H68.404C70.5556 80.5835 72.3985 80.188 73.928 79.3956C74.9611 80.1865 76.0641 80.5835 77.2353 80.5835H81.9775V69.2759H80.4789V79.4124H77.4478C76.6442 79.4124 75.8609 79.1544 75.1007 78.6414C76.4038 77.6474 77.0569 76.5405 77.0569 75.3206C77.0569 74.6152 76.7932 74.0258 76.2657 73.5495C75.7383 73.0746 74.9549 72.8365 73.9109 72.8365C72.4977 72.8365 70.9279 73.4777 69.1998 74.7618L69.071 75.7878C69.3425 75.8733 69.6109 75.9847 69.8777 76.1237C70.1445 76.2626 70.3663 76.3863 70.5447 76.4932C70.7247 76.6 70.9527 76.7665 71.2288 76.9909C71.5065 77.2154 71.6988 77.3757 71.8074 77.4719C71.916 77.568 72.1223 77.7604 72.4279 78.049C72.7304 78.3376 72.9166 78.5147 72.9817 78.5788C71.7438 79.1345 70.2608 79.4124 68.5327 79.4124H63.3671C62.9762 79.4124 62.5046 79.4277 61.9492 79.4598C62.351 79.1712 62.6644 78.7681 62.8877 78.249C63.1096 77.7299 63.2197 77.1772 63.2197 76.5878C63.2197 75.316 62.8924 74.3785 62.2347 73.7739C61.5769 73.1693 60.6943 72.867 59.5867 72.867C58.3906 72.867 57.4351 73.2395 56.7168 73.9816C56.0002 74.7251 55.6418 75.658 55.6418 76.7802C55.6418 78.0429 56.0002 78.9361 56.7168 79.4582L55.5596 79.4109H32.4537V69.2744H30.9552V80.582H66.1516L66.1562 80.5835ZM72.4621 76.3725C72.2542 76.197 71.9781 75.9939 71.6306 75.7634C71.2831 75.5328 70.9403 75.3542 70.6037 75.2259C71.8431 74.3709 72.8902 73.9434 73.7496 73.9434C74.3468 73.9434 74.7983 74.09 75.1023 74.3846C75.4063 74.6793 75.5584 75.0564 75.5584 75.516C75.5584 76.3924 75.0868 77.1833 74.1421 77.8902C74.0009 77.7619 73.7372 77.5207 73.3509 77.168C72.9647 76.8153 72.6684 76.5497 72.4636 76.3725M61.065 78.7147C60.6353 79.1804 60.0955 79.4124 59.444 79.4124C58.7056 79.4124 58.1409 79.1773 57.75 78.707C57.3575 78.2353 57.1621 77.5574 57.1621 76.6703C57.1621 75.7832 57.3839 75.1618 57.8306 74.7129C58.2774 74.264 58.8188 74.0396 59.461 74.0396C60.1994 74.0396 60.7594 74.2671 61.1395 74.7205C61.518 75.1755 61.7088 75.8305 61.7088 76.6855C61.7088 77.5406 61.4947 78.249 61.065 78.7147Z" fill="#1C2948"/>
<path id="Vector_13" d="M86.5738 69.2759H85.0753V80.5834H86.5738V69.2759Z" fill="#1C2948"/>
<path id="Vector_14" d="M94.0214 72.7235L93.646 73.9755C95.0809 74.4015 96.1172 75.0473 96.7578 75.9084C97.4001 76.7696 97.7305 77.9376 97.7537 79.4125H92.5214V80.5835H99.2352V79.7819C99.2352 77.8032 98.8179 76.2688 97.9818 75.1786C97.1441 74.087 95.824 73.2686 94.0214 72.7235Z" fill="#1C2948"/>
<path id="Vector_15" d="M103.31 69.2759H101.812V80.5834H103.31V69.2759Z" fill="#1C2948"/>
<path id="Vector_16" d="M103 84.4815C103.566 84.6311 104.129 84.7059 104.696 84.7059C107.215 84.7059 108.476 83.3577 108.476 80.6644V73.0457H106.977V80.7912C106.977 81.7973 106.794 82.5058 106.431 82.9165C106.067 83.3272 105.527 83.5348 104.81 83.5348C104.213 83.5348 103.664 83.4448 103.164 83.2615L103.002 84.4799L103 84.4815Z" fill="#1C2948"/>
<path id="Vector_17" d="M107.694 71.3279C107.944 71.3279 108.156 71.2424 108.33 71.0699C108.504 70.8989 108.591 70.6973 108.591 70.4607C108.591 70.224 108.504 70.0057 108.33 69.8347C108.156 69.6637 107.944 69.5767 107.694 69.5767C107.444 69.5767 107.247 69.6637 107.075 69.8347C106.9 70.0057 106.813 70.2149 106.813 70.4607C106.813 70.7065 106.9 70.9126 107.075 71.079C107.247 71.2439 107.454 71.3279 107.694 71.3279Z" fill="#1C2948"/>
<path id="Vector_18" d="M113.103 68.0087C112.246 68.0087 111.816 67.7675 111.816 67.288C111.816 66.8392 112.12 66.6147 112.728 66.6147C113.021 66.6147 113.294 66.6422 113.544 66.6941L113.69 65.8452C113.386 65.7918 113.093 65.7643 112.81 65.7643C112.115 65.7643 111.594 65.9139 111.247 66.2132C110.899 66.5124 110.725 66.8651 110.725 67.2712C110.725 67.656 110.888 67.9278 111.212 68.0896C110.908 68.0362 110.522 68.0087 110.055 68.0087V68.8576H114V68.0087H113.103Z" fill="#1C2948"/>
<path id="Vector_19" d="M112.941 69.7568H111.442V80.5834H112.941V69.7568Z" fill="#1C2948"/>
<path id="Vector_20" d="M8.293 98.3234L4.88179 89.274H3.69663L0.300943 98.3234C0.221829 98.4792 0.206317 98.6028 0 98.7265H1.32632L2.02128 96.8776C2.82793 95.7431 4.81819 95.1675 5.87614 95.0897L7.25055 98.728H8.64048C8.45122 98.6028 8.35505 98.4792 8.293 98.325M2.6061 95.308L4.21786 90.8451L5.67138 94.5614C4.86628 94.624 3.49187 94.9034 2.6061 95.308Z" fill="#1C2948"/>
<path id="Vector_21" d="M9.24241 90.2069C9.41615 90.0665 9.60541 89.9901 9.77915 89.9901L15.2613 89.8802L8.72119 97.6227V98.725H16.2417L16.0043 97.699C15.8151 97.8395 15.6258 97.9326 15.4691 97.9326L10.2088 98.0257L16.4635 90.3443V89.2557H8.94457L9.24551 90.2054L9.24241 90.2069Z" fill="#1C2948"/>
<path id="Vector_22" d="M24.834 98.3234L21.4228 89.274H20.2377L16.842 98.3234C16.7628 98.4792 16.7473 98.6028 16.541 98.7265H17.8673L18.5623 96.8776C19.3689 95.7431 21.3592 95.1675 22.4172 95.0897L23.7916 98.728H25.1815C24.9907 98.6028 24.8961 98.4792 24.834 98.325M19.1471 95.308L20.7589 90.8451L22.2124 94.5614C21.4073 94.624 20.0329 94.9034 19.1471 95.308Z" fill="#1C2948"/>
<path id="Vector_23" d="M28.3119 89.2893H25.6577C25.6577 89.2893 25.7679 89.384 25.7679 89.5855V98.3708C25.7679 98.6196 25.6577 98.728 25.6577 98.728H28.391C31.613 98.728 32.9393 96.0851 32.9393 93.9858C32.9393 91.2955 31.1709 89.2893 28.3119 89.2893ZM28.2002 98.0746H26.9359V89.9428H28.2002C29.812 89.9428 31.644 91.0146 31.644 94.001C31.644 96.9875 29.9531 98.0746 28.2002 98.0746Z" fill="#1C2948"/>
<path id="Vector_24" d="M42.1816 89.2588L39.0698 89.2435C39.0698 89.2435 39.18 89.3519 39.18 89.7397V98.3219C39.18 98.4777 39.1955 98.6181 39.0217 98.7265H40.5218C40.348 98.6166 40.3806 98.4761 40.3806 98.3219V94.1232H41.5813C43.4924 94.1232 45.0561 93.3934 45.0561 91.7139C45.0561 89.7397 43.3342 89.2588 42.1801 89.2588M41.7861 93.4728H40.3806V89.8955H42.1816C42.6393 89.8955 44.0928 90.1306 44.0928 91.6834C44.0928 93.3629 42.2297 93.4713 41.7861 93.4713" fill="#1C2948"/>
<path id="Vector_25" d="M52.482 91.6223C52.482 89.6466 50.7136 89.2435 49.5594 89.2435L46.4476 89.2283C46.4476 89.2283 46.5593 89.3367 46.5593 89.7245V98.3067C46.5593 98.4624 46.5748 98.6029 46.3995 98.7113H47.9012C47.7259 98.6014 47.7584 98.4609 47.7584 98.3067V94.1095H48.9591L52.1655 98.3235C52.2912 98.525 52.3238 98.6182 52.1655 98.7266H53.9821L50.1753 93.9843C50.1753 93.9843 52.482 93.6728 52.482 91.6208M47.7584 93.4545V89.8787H49.5114C49.969 89.8787 51.3279 90.0802 51.3279 91.6193C51.3279 93.314 49.5594 93.453 49.1158 93.453H47.7569L47.7584 93.4545Z" fill="#1C2948"/>
<path id="Vector_26" d="M59.5603 89.1183C59.5603 89.1183 54.8523 88.7763 54.8523 94.001C54.8523 99.2258 59.5603 98.8532 59.5603 98.8532C59.5603 98.8532 64.2668 99.241 64.2668 94.001C64.2668 88.761 59.5759 89.1183 59.5603 89.1183ZM62.8769 94.8087C61.85 98.8517 58.8654 98.1356 58.5319 98.0578C58.1999 97.9799 55.1982 97.2806 56.2407 93.1903C57.2676 89.1015 60.4585 89.8634 60.6012 89.8955C60.7284 89.9428 63.8868 90.781 62.8769 94.8087Z" fill="#1C2948"/>
<path id="Vector_27" d="M68.6118 89.2588L65.5 89.2435C65.5 89.2435 65.6117 89.3519 65.6117 89.7397V98.3219C65.6117 98.4777 65.6272 98.6181 65.4535 98.7265H66.9535C66.7798 98.6166 66.8108 98.4761 66.8108 98.3219V94.1232H68.0115C69.9226 94.1232 71.4879 93.3934 71.4879 91.7139C71.4879 89.7397 69.766 89.2588 68.6118 89.2588ZM68.2178 93.4728H66.8108V89.8955H68.6118C69.0695 89.8955 70.523 90.1306 70.523 91.6834C70.523 93.3629 68.6584 93.4713 68.2163 93.4713" fill="#1C2948"/>
<path id="Vector_28" d="M72.974 89.6786V98.3082C72.974 98.4944 72.9585 98.6654 72.8313 98.7265H78.7555V97.9173C78.6764 97.9967 78.5182 97.9967 78.3289 97.9967L74.1576 98.0731V94.5599C74.1576 94.2789 74.4741 93.9064 75.0915 93.9064H78.3925V93.3002H75.0915C74.4756 93.3002 74.1576 93.5338 74.1576 93.5338V89.926L78.3289 90.0039C78.5197 90.0039 78.6764 89.9886 78.7555 90.0817V89.274H72.8313C72.9585 89.3199 72.974 89.5061 72.974 89.6771" fill="#1C2948"/>
<path id="Vector_29" d="M86.259 91.6223C86.259 89.6466 84.4905 89.2435 83.3364 89.2435L80.2246 89.2283C80.2246 89.2283 80.3363 89.3367 80.3363 89.7245V98.3067C80.3363 98.4624 80.3518 98.6029 80.1765 98.7113H81.6781C81.5028 98.6014 81.5354 98.4609 81.5354 98.3067V94.1095H82.7361L85.9425 98.3235C86.0682 98.525 86.1008 98.6182 85.9425 98.7266H87.759L83.9523 93.9843C83.9523 93.9843 86.259 93.6728 86.259 91.6208M81.5354 93.4545V89.8787H83.2883C83.7459 89.8787 85.1048 90.0802 85.1048 91.6193C85.1048 93.314 83.3364 93.453 82.8928 93.453H81.5339L81.5354 93.4545Z" fill="#1C2948"/>
<path id="Vector_30" d="M88.1561 90.0833C88.2508 89.9901 88.409 90.0054 88.5827 90.0054L91.6325 89.9275V98.3082C91.6325 98.496 91.6154 98.6654 91.4898 98.728H92.9433C92.9433 98.728 92.8161 98.5723 92.8161 98.3082V89.9275L95.9124 90.0054C96.0877 90.0054 96.2444 89.9901 96.339 90.0833V89.274H88.1561V90.0833Z" fill="#1C2948"/>
<path id="Vector_31" d="M98.4083 89.7261C98.4083 89.5703 98.4393 89.3993 98.52 89.323H97.1285C97.2247 89.4161 97.2247 89.5719 97.2247 89.7261V98.3235C97.2247 98.4793 97.2247 98.635 97.1285 98.7281H98.52C98.3928 98.6182 98.4083 98.4777 98.4083 98.3235V89.7261Z" fill="#1C2948"/>
<path id="Vector_32" d="M100.163 89.6786V98.3082C100.163 98.4944 100.147 98.6654 100.02 98.7265H105.944V97.9173C105.865 97.9967 105.707 97.9967 105.518 97.9967L101.346 98.0731V94.5599C101.346 94.2789 101.663 93.9064 102.28 93.9064H105.581V93.3002H102.28C101.664 93.3002 101.346 93.5338 101.346 93.5338V89.926L105.518 90.0039C105.709 90.0039 105.865 89.9886 105.944 90.0817V89.274H100.02C100.147 89.3199 100.163 89.5061 100.163 89.6771" fill="#1C2948"/>
<path id="Vector_33" d="M109.01 90.9383C109.01 90.5184 109.373 89.5856 110.589 89.5856C112.09 89.5856 112.77 91.2345 112.77 91.2345L113.339 90.178C113.339 90.178 112.391 89.0115 110.589 89.0115C109.152 89.0115 107.714 89.7428 107.714 91.3444C107.714 94.7034 112.564 94.2362 112.564 96.5219C112.564 97.2364 112.201 98.2777 110.589 98.2777C108.882 98.2777 107.873 96.6287 107.873 96.6287L107.288 97.7021C107.288 97.7021 108.662 98.8518 110.589 98.8518C112.515 98.8518 113.859 97.7632 113.859 96.2867C113.859 92.8346 109.01 94.14 109.01 90.9383Z" fill="#1C2948"/>
</g>
<defs>
<clipPath id="clip0_5890_8773">
<rect width="114" height="98.8594" fill="white"/>
</clipPath>
</defs>
</svg>
